<svg width="14" height="14" viewBox="0 0 14 14" fill="none" xmlns="http://www.w3.org/2000/svg">
<g id="icon-reply" clip-path="url(#clip0_20_91)">
<path id="Vector" d="M0.226999 4.816L5.04 0.660004C5.13527 0.578199 5.25199 0.525411 5.37634 0.507891C5.50068 0.490371 5.62744 0.508853 5.74161 0.561149C5.85578 0.613444 5.95256 0.697362 6.02051 0.802965C6.08846 0.908568 6.12472 1.03143 6.125 1.157V3.346C10.517 3.396 14 4.276 14 8.439C14 10.119 12.918 11.783 11.721 12.653C11.348 12.925 10.816 12.583 10.954 12.143C12.194 8.179 10.366 7.126 6.125 7.065V9.469C6.125 10.035 5.461 10.329 5.04 9.965L0.226999 5.81C0.155832 5.74833 0.0987557 5.67208 0.0596377 5.58641C0.0205197 5.50075 0.000274658 5.40768 0.000274658 5.3135C0.000274658 5.21933 0.0205197 5.12626 0.0596377 5.0406C0.0987557 4.95493 0.155832 4.87768 0.226999 4.816Z" fill="#00FF85"/>
</g>
<defs>
<clipPath id="clip0_20_91">
<rect width="14" height="13" fill="white" transform="translate(0 0.5)"/>
</clipPath>
</defs>
</svg>
